<?xml version="1.0" standalone="no"?>
<!DOCTYPE svg PUBLIC "-//W3C//DTD SVG 20010904//EN"
 "http://www.w3.org/TR/2001/REC-SVG-20010904/DTD/svg10.dtd">
<svg version="1.0" xmlns="http://www.w3.org/2000/svg"
 width="984.000000pt" height="984.000000pt" viewBox="0 0 984.000000 984.000000"
 preserveAspectRatio="xMidYMid meet">
<metadata>
Created by potrace 1.14, written by Peter Selinger 2001-2017
</metadata>
<g transform="translate(0.000000,984.000000) scale(0.100000,-0.100000)"
fill="#000000" stroke="none">
<path d="M3792 9821 c-50 -26 -93 -71 -115 -121 -19 -41 -20 -68 -21 -340 -1
-162 3 -317 7 -345 9 -50 43 -107 82 -135 68 -49 61 -49 488 -50 220 0 403 -3
406 -6 7 -7 8 -704 1 -705 -3 -1 -16 -2 -30 -4 -45 -3 -185 -17 -200 -20 -8
-1 -37 -6 -65 -9 -103 -15 -121 -18 -160 -26 -22 -5 -56 -12 -75 -15 -68 -12
-246 -57 -360 -92 -63 -20 -119 -36 -125 -38 -5 -1 -23 -7 -40 -14 -16 -6 -50
-19 -75 -28 -25 -9 -49 -20 -55 -23 -5 -4 -23 -11 -40 -15 -38 -11 -33 -9 -80
-30 -22 -10 -42 -19 -45 -20 -13 -1 -322 -158 -375 -190 -33 -20 -68 -38 -77
-42 -10 -3 -18 -9 -18 -14 0 -5 -5 -9 -10 -9 -12 0 -124 -72 -128 -82 -2 -5
-8 -8 -14 -8 -6 0 -27 -13 -48 -30 -21 -16 -41 -30 -44 -30 -6 0 -217 -161
-242 -185 -6 -5 -30 -26 -54 -45 -163 -134 -423 -405 -553 -577 -28 -38 -55
-72 -59 -78 -49 -61 -88 -114 -88 -119 0 -4 -18 -31 -40 -61 -22 -30 -40 -56
-40 -59 0 -3 -13 -24 -29 -48 -15 -24 -40 -63 -53 -88 -14 -25 -38 -67 -54
-95 -15 -27 -33 -53 -38 -57 -6 -4 -8 -8 -4 -8 3 0 -20 -54 -53 -119 -61 -123
-151 -337 -189 -451 -24 -71 -68 -213 -76 -245 -3 -11 -7 -27 -9 -35 -2 -8 -4
-15 -5 -15 -1 0 -3 -7 -5 -15 -2 -8 -13 -58 -25 -110 -12 -52 -24 -104 -26
-115 -3 -11 -6 -36 -9 -55 -2 -19 -4 -35 -5 -35 -5 0 -25 -133 -36 -235 -2
-25 -8 -72 -11 -105 -10 -80 -10 -652 -1 -740 12 -110 35 -277 44 -325 3 -14
7 -36 9 -50 4 -22 22 -109 45 -210 10 -43 35 -136 57 -210 10 -30 18 -57 18
-60 1 -3 4 -12 7 -20 3 -8 25 -69 48 -135 55 -152 126 -318 201 -465 61 -120
110 -211 119 -220 8 -8 70 -111 70 -116 0 -3 5 -10 10 -17 12 -14 150 -211
165 -236 6 -9 12 -18 15 -21 3 -3 44 -52 89 -109 189 -233 466 -504 676 -659
6 -4 38 -29 73 -55 34 -26 66 -47 71 -47 5 0 11 -3 13 -8 2 -4 39 -31 83 -60
44 -28 85 -56 92 -62 7 -5 15 -10 19 -10 4 0 15 -6 23 -14 15 -12 100 -60 196
-110 22 -12 42 -24 43 -28 2 -5 8 -8 13 -8 5 0 57 -23 115 -50 58 -28 107 -50
109 -50 1 0 24 -10 51 -22 27 -12 51 -23 54 -23 3 -1 12 -5 20 -8 99 -41 375
-133 430 -143 19 -4 43 -11 53 -16 10 -5 28 -10 40 -12 12 -1 36 -6 52 -10 75
-18 113 -26 145 -32 19 -3 58 -10 85 -15 51 -9 77 -13 155 -24 25 -3 65 -9 90
-13 61 -9 829 -9 910 1 117 14 218 28 245 34 11 2 29 6 41 8 11 1 46 8 77 15
31 6 59 11 62 12 2 0 37 9 77 19 40 11 81 22 92 24 10 2 44 12 75 21 31 10 65
19 76 21 35 6 298 103 390 144 119 52 158 70 240 110 50 24 92 46 95 49 3 3
16 11 30 17 22 11 57 31 149 84 14 8 30 17 35 21 6 5 70 47 141 94 72 48 132
90 135 93 3 3 48 38 100 78 52 39 112 87 132 107 20 20 40 36 44 36 9 0 354
347 396 400 20 25 62 77 93 115 30 39 63 79 73 91 9 11 30 40 47 65 16 24 32
46 35 49 9 8 145 220 171 265 12 22 34 60 48 85 13 25 29 48 34 51 5 3 8 8 8
10 -2 9 24 69 30 69 4 0 10 14 14 30 4 17 11 30 16 30 5 0 9 5 9 11 0 5 12 36
26 67 61 131 79 174 126 302 58 158 124 372 142 460 3 14 12 56 21 93 8 37 17
82 20 100 3 18 8 39 10 47 2 8 6 33 9 55 4 22 9 53 12 70 4 16 8 43 9 60 1 16
7 64 11 105 11 95 12 763 1 850 -12 96 -15 120 -21 170 -3 25 -8 56 -11 70 -3
14 -8 36 -10 50 -4 26 -15 88 -19 105 -1 6 -8 37 -15 70 -7 33 -22 92 -33 130
-10 39 -21 77 -23 85 -1 8 -11 42 -21 75 -10 33 -19 65 -20 70 -11 44 -107
294 -152 398 -12 26 -22 49 -22 52 -2 8 -142 279 -150 290 -4 6 -22 37 -40 70
-31 58 -206 325 -219 335 -4 3 -18 21 -31 40 -36 53 -131 172 -160 200 -14 14
-26 29 -27 33 -3 11 -79 92 -198 212 -129 129 -291 271 -430 374 -60 44 -114
85 -120 89 -33 26 -107 72 -116 72 -5 0 -9 5 -9 10 0 6 -7 10 -15 10 -8 0 -15
5 -15 10 0 6 -4 10 -8 10 -5 0 -51 25 -102 56 -124 75 -357 191 -500 250 -101
41 -307 118 -335 124 -13 3 -19 5 -80 24 -27 8 -68 20 -90 25 -123 30 -254 60
-285 65 -19 3 -48 8 -65 12 -39 8 -70 12 -125 19 -25 3 -54 7 -65 10 -11 2
-23 4 -27 4 -4 1 -8 165 -8 366 l0 365 392 1 c216 0 403 2 416 5 42 8 99 43
128 79 32 40 57 102 50 122 -3 7 -1 15 4 18 5 3 5 18 0 35 -5 17 -5 32 0 35 5
3 5 16 1 28 -5 12 -5 31 -1 43 5 11 5 26 0 33 -4 7 -4 27 -1 45 4 17 4 46 0
64 -3 17 -3 32 2 32 4 0 4 13 -1 29 -4 15 -4 34 0 42 5 7 6 17 3 22 -3 6 -5
29 -4 53 1 24 1 50 2 57 1 47 -12 109 -31 147 -25 49 -55 76 -113 102 -36 17
-118 18 -1235 17 -1101 -1 -1200 -3 -1230 -18z m1378 -2355 c52 -3 122 -10
155 -15 33 -5 63 -7 67 -5 4 3 9 0 13 -6 4 -6 10 -8 15 -5 6 4 165 -22 235
-39 11 -2 49 -12 85 -21 36 -8 73 -18 83 -20 77 -18 342 -110 437 -152 53 -23
78 -33 86 -32 4 0 10 -3 13 -8 5 -7 105 -58 123 -62 4 -1 36 -18 70 -38 35
-20 76 -43 92 -51 34 -17 321 -209 351 -234 11 -10 59 -49 108 -88 48 -39 87
-76 87 -82 0 -6 3 -8 6 -5 8 7 223 -206 310 -308 77 -90 166 -202 189 -237 23
-37 110 -163 115 -168 3 -3 11 -16 18 -30 25 -47 49 -90 59 -102 29 -37 174
-335 198 -408 1 -3 7 -18 14 -35 7 -16 14 -34 15 -40 1 -5 7 -19 13 -30 28
-55 132 -424 148 -529 3 -21 8 -48 11 -60 3 -12 7 -34 9 -51 2 -16 4 -30 5
-30 1 0 4 -22 15 -120 19 -165 25 -522 12 -650 -4 -33 -9 -87 -12 -120 -4 -33
-7 -69 -9 -80 -5 -35 -18 -119 -22 -140 -2 -11 -6 -31 -9 -45 -3 -14 -12 -56
-21 -95 -8 -38 -17 -77 -18 -85 -1 -8 -11 -42 -20 -75 -10 -33 -20 -67 -21
-75 -2 -8 -10 -34 -19 -58 -8 -23 -15 -43 -15 -45 1 -12 -105 -283 -113 -288
-6 -3 -10 -10 -10 -15 -3 -49 -191 -398 -274 -511 -13 -17 -24 -36 -24 -42 0
-6 -4 -11 -8 -11 -4 0 -15 -13 -24 -28 -16 -26 -112 -151 -191 -246 -79 -97
-339 -349 -437 -426 -25 -19 -47 -37 -50 -40 -6 -6 -106 -79 -140 -102 -14
-10 -51 -35 -84 -58 -32 -22 -61 -40 -64 -40 -3 0 -13 -6 -21 -14 -27 -24
-269 -154 -275 -148 -3 3 -6 0 -6 -6 0 -7 -4 -12 -9 -12 -5 0 -44 -16 -88 -36
-144 -66 -157 -71 -288 -117 -116 -40 -276 -87 -345 -101 -14 -3 -43 -10 -65
-15 -22 -6 -56 -13 -75 -16 -19 -3 -60 -10 -90 -15 -113 -19 -168 -25 -310
-36 -197 -16 -536 -6 -690 20 -19 3 -51 8 -70 10 -55 8 -214 37 -220 41 -4 2
-22 7 -41 10 -19 3 -59 13 -89 21 -30 9 -62 17 -70 19 -8 2 -60 18 -115 36
-55 18 -102 33 -105 34 -3 0 -26 8 -50 19 -25 10 -54 22 -65 26 -33 13 -86 36
-168 74 -43 20 -80 36 -83 36 -2 0 -22 11 -44 25 -22 14 -40 22 -40 18 0 -5
-4 -3 -8 2 -4 6 -27 21 -52 34 -163 88 -424 271 -578 406 -69 60 -279 272
-327 330 -28 33 -57 67 -65 75 -40 40 -260 347 -260 363 0 3 -13 26 -30 50
-16 25 -30 49 -30 55 0 6 -4 12 -8 14 -11 4 -187 363 -198 403 -2 6 -19 55
-40 110 -55 150 -46 125 -63 185 -6 25 -14 52 -17 60 -3 8 -5 16 -5 17 0 2 -5
17 -10 35 -6 18 -12 44 -15 57 -3 12 -11 51 -19 85 -8 33 -16 75 -19 91 -3 17
-8 41 -11 55 -3 14 -8 45 -11 70 -3 25 -7 52 -10 60 -4 15 -15 133 -18 206 -1
22 -5 44 -7 50 -15 29 6 557 25 651 2 11 7 43 11 70 4 26 9 59 12 73 2 14 6
34 8 45 2 11 9 43 15 70 6 28 14 61 16 75 7 37 24 102 34 130 5 14 21 66 35
115 15 50 32 96 37 103 6 6 8 12 4 12 -5 0 23 80 44 125 10 21 33 77 34 85 3
12 138 281 169 336 73 130 247 385 268 392 5 2 9 8 9 13 0 9 21 38 57 75 13
13 23 25 23 28 0 13 246 267 341 351 146 130 368 291 539 391 120 70 310 166
310 157 0 -4 4 -3 8 3 8 12 284 123 307 124 3 0 19 7 35 15 17 9 30 13 30 11
0 -3 26 4 57 15 32 11 66 21 78 24 11 2 46 11 78 18 31 8 57 12 57 9 0 -2 6 0
13 6 6 5 32 13 57 17 74 11 94 14 120 21 14 3 39 7 55 9 17 2 53 7 80 10 28 3
61 8 74 10 14 2 74 7 135 11 61 4 112 7 113 8 5 4 276 -2 363 -8z"/>
<path d="M4933 6867 c-4 -7 -8 -643 -8 -1415 l0 -1403 25 5 c14 4 30 8 35 9 6
2 30 9 55 16 25 6 54 16 65 21 11 4 34 12 50 16 38 9 32 7 145 43 52 16 149
45 215 65 66 20 156 48 200 62 71 23 95 30 130 37 6 2 15 5 20 9 6 3 26 9 45
13 19 4 41 12 48 17 6 6 12 8 12 4 0 -3 12 -1 28 5 15 6 41 15 57 19 17 4 84
25 150 45 66 21 125 38 130 40 6 1 17 5 25 8 21 8 89 28 103 31 7 2 46 13 87
26 41 14 78 25 83 26 4 1 9 3 12 4 3 1 8 3 13 4 4 1 41 12 82 26 41 13 80 24
86 26 11 2 114 33 314 95 58 18 107 34 110 34 3 1 23 7 45 13 22 6 45 12 50
13 6 1 30 9 55 19 25 10 47 18 50 17 5 0 76 21 100 30 8 4 17 7 20 8 59 14 61
16 54 38 -43 143 -216 537 -236 537 -4 0 -8 5 -8 10 0 14 -91 164 -102 168 -4
2 -8 8 -8 13 0 8 -48 77 -107 154 -115 149 -339 378 -452 462 -13 10 -34 27
-46 39 -13 12 -29 24 -37 28 -7 3 -40 26 -73 51 -33 25 -69 49 -80 54 -12 5
-27 16 -34 25 -7 9 -17 16 -21 16 -4 0 -37 17 -71 38 -35 21 -79 45 -96 53
-18 8 -33 17 -33 21 0 5 -5 8 -11 8 -6 0 -34 12 -63 26 -119 60 -447 179 -511
185 -2 0 -19 5 -37 10 -18 5 -44 12 -58 14 -14 2 -38 7 -55 11 -16 4 -39 8
-50 9 -11 2 -20 4 -20 5 0 2 -24 6 -98 14 -32 4 -68 9 -80 12 -12 2 -78 7
-147 10 -69 3 -130 7 -137 9 -7 2 -16 -1 -20 -8z"/>
<path d="M1878 8175 c-2 -2 -21 -5 -43 -9 -44 -6 -125 -28 -165 -44 -14 -5
-28 -10 -33 -11 -17 -2 -126 -68 -166 -100 -50 -40 -141 -132 -141 -143 0 -4
-6 -13 -12 -20 -28 -30 -94 -162 -104 -205 -1 -6 -7 -27 -12 -45 -22 -71 -32
-169 -28 -279 5 -128 11 -170 33 -248 8 -29 16 -59 18 -65 1 -6 7 -24 13 -39
7 -15 15 -39 18 -53 10 -37 22 -38 52 -4 83 97 154 172 312 330 200 200 269
264 445 410 50 41 92 78 93 83 2 4 8 7 12 7 5 0 26 16 47 35 21 19 43 35 50
35 7 0 16 6 20 14 4 7 27 26 49 42 98 68 234 167 234 170 0 4 -73 38 -117 55
-47 19 -180 57 -220 64 -21 4 -49 9 -63 12 -28 5 -287 13 -292 8z"/>
<path d="M7707 8174 c-1 -2 -16 -5 -32 -8 -17 -3 -43 -8 -60 -11 -16 -3 -48
-11 -70 -17 -22 -6 -46 -12 -52 -14 -20 -4 -155 -55 -186 -71 -32 -16 -29 -20
48 -73 51 -35 326 -240 335 -250 3 -3 46 -39 95 -80 252 -208 550 -501 775
-760 18 -21 18 -21 31 17 7 21 14 40 14 43 1 3 5 14 9 25 24 64 43 142 54 225
8 63 8 245 0 305 -27 203 -150 409 -311 522 -61 43 -174 100 -211 107 -14 3
-31 8 -36 11 -6 4 -21 8 -33 10 -12 2 -33 7 -47 10 -24 7 -317 15 -323 9z"/>
</g>
</svg>
